<?xml version="1.0" standalone="no"?><!DOCTYPE svg PUBLIC "-//W3C//DTD SVG 1.1//EN" "http://www.w3.org/Graphics/SVG/1.1/DTD/svg11.dtd"><svg t="1705578534092" class="icon" viewBox="0 0 1024 1024" version="1.1" xmlns="http://www.w3.org/2000/svg" p-id="1477" xmlns:xlink="http://www.w3.org/1999/xlink" width="200" height="200"><path d="M516.5 530.6m-428.9 0a428.9 428.9 0 1 0 857.8 0 428.9 428.9 0 1 0-857.8 0Z" fill="#16398C" p-id="1478"></path><path d="M516.5 530.6m-393.7 0a393.7 393.7 0 1 0 787.4 0 393.7 393.7 0 1 0-787.4 0Z" fill="#FFFFFF" p-id="1479"></path><path d="M516.5 533m-360 0a360 360 0 1 0 720 0 360 360 0 1 0-720 0Z" fill="#16398C" p-id="1480"></path><path d="M813 450.6l-59.8 59.8 12.5 10c7.5 5 0 12.5 0 22.4 0 39.9-74.8 159.6-211.9 167.1v-197H671v-67.3H551.2v-17.5c32.4-15 57.3-44.9 57.3-77.3 0-49.9-42.4-82.3-87.3-82.3-49.9-2.5-87.3 34.9-87.3 79.8 0 34.9 19.9 59.8 47.4 77.3v19.9H364.2v67.3h119.7v197C364.2 702.3 277 582.6 274.5 542.7c0-7.5 0-15 7.5-22.4l15-10-67.3-59.8c-5 261.8 202 324.1 254.3 339.1l37.4 42.4 32.4-37.4c72.2-14.9 261.7-82.2 259.2-344zM516.3 311c17.5 0 34.9 15 34.9 32.4 0 17.5-15 34.9-34.9 34.9-19.9 2.5-34.9-10-34.9-29.9 0-20 17.4-37.4 34.9-37.4z m0 0" fill="#FFFFFF" p-id="1481"></path></svg>