<?xml version="1.0" standalone="no"?><!DOCTYPE svg PUBLIC "-//W3C//DTD SVG 1.1//EN" "http://www.w3.org/Graphics/SVG/1.1/DTD/svg11.dtd"><svg t="1705631555136" class="icon" viewBox="0 0 1024 1024" version="1.1" xmlns="http://www.w3.org/2000/svg" p-id="26525" xmlns:xlink="http://www.w3.org/1999/xlink" width="200" height="200"><path d="M505.344 113.216S369.066667 176.490667 369.066667 316.117333v450.986667s-1.685333 134.592 136.277333 134.592c137.941333 0 137.941333-137.962667 137.941333-137.962667V316.117333s0-134.144-137.941333-202.901333z" fill="#f4ea2a" p-id="26526"></path><path d="M505.344 908.437333c-43.050667 0-77.226667-12.650667-102.101333-37.546666-40.917333-41.344-40.917333-101.248-40.512-103.786667v-450.986667c0-142.165333 138.389333-207.978667 140.074666-208.810666 1.685333-0.853333 3.797333-0.853333 5.482667 0 139.648 69.610667 141.333333 207.573333 141.333333 208.810666V764.16c0 1.28-1.706667 144.277333-144.277333 144.277333z m0-787.626666c-18.986667 9.685333-129.941333 72.533333-129.941333 195.733333v450.986667c0 0.426667 0 56.96 37.12 94.506666 22.357333 22.357333 53.568 33.749333 92.8 33.749334 129.536 0 131.2-125.717333 131.2-131.2V316.117333c0-1.258667-1.664-129.066667-131.2-195.328z" fill="#f4ea2a" p-id="26527"></path><path d="M506.176 204.757333s-104.192 54.4-81.002667 153.984c0 0 40.917333-36.693333 80.576-36.693333 39.68 0 83.968 36.266667 83.968 36.266667s-0.426667-113.493333-83.541333-153.557334z" fill="#f4ea2a" p-id="26528"></path><path d="M425.173333 365.482667c-0.853333 0-1.28 0-2.112-0.426667a6.634667 6.634667 0 0 1-4.202666-4.629333c-24.064-103.36 83.093333-160.746667 84.373333-161.578667 1.685333-0.853333 3.797333-0.853333 5.909333 0 86.058667 41.344 86.890667 154.816 86.890667 159.466667 0 2.538667-1.28 4.650667-3.797333 5.909333a5.738667 5.738667 0 0 1-6.741334-0.853333c-0.426667-0.426667-43.029333-35.008-79.744-35.008-36.266667 0-75.52 35.008-75.946666 35.008-1.664 1.28-2.944 2.133333-4.629334 2.133333z m81.002667-153.557334c-15.616 9.28-88.170667 55.68-76.778667 134.997334 14.762667-10.965333 45.568-31.637333 75.946667-31.637334 29.098667 0 60.309333 18.133333 76.352 29.525334-2.538667-29.952-16.042667-102.08-75.52-132.885334z" fill="#f4ea2a" p-id="26529"></path></svg>
